<?xml version="1.0" encoding="utf-8"?>
<!-- Generator: Adobe Illustrator 19.0.0, SVG Export Plug-In . SVG Version: 6.00 Build 0)  -->
<svg version="1.1" id="Capa_1" xmlns="http://www.w3.org/2000/svg" xmlns:xlink="http://www.w3.org/1999/xlink" x="0px" y="0px"
	 viewBox="-175 53.4 489.9 489.9" style="enable-background:new -175 53.4 489.9 489.9;" xml:space="preserve">
<style type="text/css">
	.st0{fill:#2196F3;}
	.st1{fill:#FFFFFF;}
</style>
<circle class="st0" cx="69.9" cy="298.3" r="244.9"/>
<g>
	<g>
		<path class="st1" d="M37.3,223.5h64.6c12.9-16.8,13.4-29.3,13.6-30c1.4-10.9-8.6-19.4-19.2-17.3c-8.1,1.9-17.1,2.9-26.6,2.9
			s-18.4-0.9-26.6-2.7c-10.7-2.4-20.8,6.4-19.4,17.1C24,194.4,26,210.7,37.3,223.5z"/>
		<path class="st1" d="M104.8,234.1H34.6C4.9,257-15.8,305.3-15.8,345.8c0,55.3,38.4,75.1,85.8,75.1s85.8-20,85.8-75.1
			C155.5,305.3,134.7,257,104.8,234.1z M77.5,371.8v5.3c0,4.2-3.4,7.6-7.6,7.6s-7.6-3.4-7.6-7.6v-5.3c-4.4-1.4-8.5-3.8-11.8-7.3
			c-2.8-3.1-2.8-7.9,0.3-10.8c3.1-2.9,7.8-2.8,10.8,0.4c2.2,2.3,5.1,3.6,8.3,3.6c6.3,0,11.3-5.1,11.3-11.4s-5.1-11.4-11.3-11.4
			c-14.7,0-26.5-11.9-26.5-26.6c0-12,8-22.1,18.9-25.4v-5.3c0-4.2,3.4-7.6,7.6-7.6s7.6,3.4,7.6,7.6v5.3c4.4,1.3,8.5,3.8,11.8,7.3
			c2.9,3,2.8,7.8-0.3,10.8c-3.1,2.9-7.9,2.8-10.8-0.3c-2.1-2.3-5.1-3.6-8.3-3.6c-6.3,0-11.3,5.1-11.3,11.4s5.1,11.4,11.3,11.4
			c14.6,0,26.6,11.9,26.6,26.6C96.5,358.4,88.5,368.6,77.5,371.8z"/>
	</g>
</g>
</svg>
