<?xml version="1.0" encoding="utf-8"?>
<!-- Generator: Adobe Illustrator 19.0.0, SVG Export Plug-In . SVG Version: 6.00 Build 0)  -->
<svg version="1.1" id="Capa_1" xmlns="http://www.w3.org/2000/svg" xmlns:xlink="http://www.w3.org/1999/xlink" x="0px" y="0px"
	 viewBox="-175 53.4 489.9 489.9" style="enable-background:new -175 53.4 489.9 489.9;" xml:space="preserve">
<style type="text/css">
	.st0{fill:#2196F3;}
	.st1{fill:#FFFFFF;}
</style>
<circle class="st0" cx="70" cy="298.3" r="244.9"/>
<path class="st1" d="M189.9,202.3h-72v48h-96v-48h-72c-13.3,0-24,10.8-24,24v176c0,13.3,10.8,24,24,24h240c13.3,0,24-10.8,24-24
	v-176C213.9,213.1,203.2,202.3,189.9,202.3z M69.9,282.3c17.6,0,32,14.3,32,32c0,17.6-14.4,32-32,32s-32-14.4-32-32
	S52.3,282.3,69.9,282.3z M116.6,394.3H23.3c-5.2,0-9.4-5-7.8-9.9c4.2-12.8,16.2-22.1,30.5-22.1H50c6.2,2.5,12.8,4,19.9,4
	s13.8-1.5,19.9-4h4.1c14.2,0,26.3,9.3,30.4,22.1C126,389.3,121.8,394.3,116.6,394.3z M101.9,186.3c0-8.9-7.1-16-16-16h-32
	c-8.8,0-16,7.1-16,16v48h64V186.3z"/>
</svg>
