<?xml version="1.0" encoding="utf-8"?>
<!-- Generator: Adobe Illustrator 19.0.0, SVG Export Plug-In . SVG Version: 6.00 Build 0)  -->
<svg version="1.1" id="Capa_1" xmlns="http://www.w3.org/2000/svg" xmlns:xlink="http://www.w3.org/1999/xlink" x="0px" y="0px"
	 viewBox="-175 53.4 489.9 489.9" style="enable-background:new -175 53.4 489.9 489.9;" xml:space="preserve">
<style type="text/css">
	.st0{fill:#2196F3;}
	.st1{fill:#FFFFFF;}
</style>
<circle class="st0" cx="69.9" cy="298.3" r="244.9"/>
<path class="st1" d="M31,397.6c0,3.1,0.9,6.2,2.7,8.8l8.5,12.8c3,4.5,8,7.1,13.3,7.1h30.9c5.4,0,10.4-2.7,13.3-7.1l8.5-12.8
	c1.7-2.6,2.7-5.7,2.7-8.8l0-19.2H31C31,378.4,31,397.6,31,397.6z M-17,258.4c0,22.2,8.2,42.4,21.8,57.9C13,325.7,26,345.4,30.9,362
	c0,0.1,0,0.3,0.1,0.4h80.1c0-0.1,0-0.3,0.1-0.4c4.9-16.6,17.8-36.3,26.1-45.7c13.6-15.5,21.8-35.7,21.8-57.9
	c0-48.7-39.5-88.1-88.3-88C19.7,170.6-17,211.9-17,258.4z M71,218.4c-22.1,0-40,17.9-40,40c0,4.4-3.6,8-8,8s-8-3.6-8-8
	c0-30.9,25.1-56,56-56c4.4,0,8,3.6,8,8S75.4,218.4,71,218.4z"/>
</svg>
