<?xml version="1.0" encoding="utf-8"?>
<!-- Generator: Adobe Illustrator 19.0.0, SVG Export Plug-In . SVG Version: 6.00 Build 0)  -->
<svg version="1.1" id="Capa_1" xmlns="http://www.w3.org/2000/svg" xmlns:xlink="http://www.w3.org/1999/xlink" x="0px" y="0px"
	 viewBox="-175 53.4 489.9 489.9" style="enable-background:new -175 53.4 489.9 489.9;" xml:space="preserve">
<style type="text/css">
	.st0{fill:#2196F3;}
	.st1{fill:#FFFFFF;}
</style>
<circle class="st0" cx="69.9" cy="298.3" r="244.9"/>
<path class="st1" d="M141.9,202.3h-40c0-17.6-14.4-32-32-32s-32,14.4-32,32h-40c-13.3,0-24,10.7-24,24v176c0,13.3,10.7,24,24,24h144
	c13.3,0,24-10.7,24-24v-176C165.9,213.1,155.2,202.3,141.9,202.3z M138.9,402.3H0.9c-1.7,0-3-1.3-3-3v-170c0-1.7,1.3-3,3-3h21v18
	c0,3.3,2.7,6,6,6h84c3.3,0,6-2.7,6-6v-18h21c1.7,0,3,1.3,3,3v170C141.9,401,140.6,402.3,138.9,402.3z M69.9,190.3
	c6.6,0,12,5.4,12,12s-5.4,12-12,12s-12-5.4-12-12S63.3,190.3,69.9,190.3"/>
<path class="st1" d="M130.9,375.2l3.4-3.3c1-0.9,0.5-2.6-0.8-2.9l-4.6-1.2l1.3-4.5c0.4-1.3-0.9-2.5-2.2-2.2l-4.5,1.3l-1.2-4.6
	c-0.3-1.3-2-1.8-2.9-0.8l-3.3,3.4l-3.3-3.4c-0.9-1-2.6-0.5-2.9,0.8l-1.2,4.6l-4.5-1.3c-1.3-0.4-2.5,0.9-2.2,2.2l1.3,4.5l-4.6,1.2
	c-1.3,0.3-1.8,2-0.8,2.9l3.4,3.3l-3.4,3.3c-1,0.9-0.5,2.6,0.8,2.9l4.6,1.2l-1.3,4.5c-0.4,1.3,0.9,2.5,2.2,2.2l4.5-1.3l1.2,4.6
	c0.3,1.4,2,1.8,2.9,0.8l3.3-3.4l3.3,3.4c0.9,1,2.6,0.5,2.9-0.8l1.2-4.6l4.5,1.3c1.3,0.4,2.5-0.9,2.2-2.2l-1.3-4.5l4.6-1.2
	c1.3-0.3,1.8-2,0.8-2.9L130.9,375.2L130.9,375.2z"/>
</svg>
