<!-- Generated by IcoMoon.io -->
<svg version="1.1" xmlns="http://www.w3.org/2000/svg" width="1024" height="1024" viewBox="0 0 1024 1024">
<title>money-bag</title>
<g id="icomoon-ignore">
</g>
<path fill="#000" d="M375.404 198.989h270.057c53.928-70.231 56.018-122.487 56.854-125.413 5.853-45.567-35.952-81.101-80.265-72.322-33.862 7.943-71.486 12.123-111.2 12.123s-77.129-3.762-111.409-11.287c-44.731-10.033-86.953 26.755-81.101 71.486 1.463 3.762 9.824 71.904 57.063 125.413z"></path>
<path fill="#000" d="M657.584 243.302h-293.467c-124.159 95.732-210.694 297.648-210.694 466.956 0 231.179 160.529 313.951 358.682 313.951s358.682-83.609 358.682-313.951c-1.254-169.308-88.207-371.224-213.203-466.956zM543.458 818.949v22.156c0 17.558-14.214 31.771-31.771 31.771s-31.771-14.214-31.771-31.771v-22.156c-18.394-5.853-35.534-15.886-49.329-30.517-11.705-12.959-11.705-33.026 1.254-45.149s32.607-11.705 45.149 1.672c9.197 9.615 21.32 15.050 34.698 15.050 26.337 0 47.239-21.32 47.239-47.657s-21.32-47.657-47.239-47.657c-61.453 0-110.782-49.747-110.782-111.2 0-50.165 33.444-92.388 79.010-106.183v-22.156c0-17.558 14.214-31.771 31.771-31.771s31.771 14.214 31.771 31.771v22.156c18.394 5.435 35.534 15.886 49.329 30.517 12.123 12.541 11.705 32.607-1.254 45.149-12.959 12.123-33.026 11.705-45.149-1.254-8.779-9.615-21.32-15.050-34.698-15.050-26.337 0-47.239 21.32-47.239 47.657s21.32 47.657 47.239 47.657c61.034 0 111.2 49.747 111.2 111.2 0 49.747-33.444 92.388-79.428 105.765z"></path>
</svg>
